<svg width="512" height="512" viewBox="0 0 512 512" fill="none" xmlns="http://www.w3.org/2000/svg">
<path d="M33 379.952V131.952H117.32L122.28 177.584V379.952H33ZM188.248 379.952V252.976H277.528V379.952H188.248ZM188.248 252.976C188.248 243.387 187.091 235.616 184.776 229.664C182.792 223.381 179.651 218.587 175.352 215.28C171.384 211.973 166.259 210.155 159.976 209.824C147.411 209.163 137.987 211.973 131.704 218.256C125.421 224.539 122.28 234.459 122.28 248.016H97.976C97.976 221.893 101.944 199.739 109.88 181.552C117.816 163.365 128.563 149.643 142.12 140.384C155.677 130.795 171.053 126 188.248 126C208.419 126 225.117 130.133 238.344 138.4C251.571 146.336 261.325 158.571 267.608 175.104C274.221 191.637 277.528 212.635 277.528 238.096V252.976H188.248Z" fill="url(#paint0_linear_9_25)"/>
<path d="M363.894 385.904C347.361 385.904 331.985 383.589 317.766 378.96C303.547 374.331 291.313 367.883 281.062 359.616C271.142 351.019 264.198 340.768 260.23 328.864L331.158 301.088C334.795 310.016 339.921 315.803 346.534 318.448C353.147 320.763 358.934 321.92 363.894 321.92C369.185 321.92 373.483 320.763 376.79 318.448C380.097 316.133 381.75 312.827 381.75 308.528C381.75 303.899 379.435 300.096 374.806 297.12C370.177 293.813 363.067 291.003 353.478 288.688L333.142 283.728C310.987 278.107 294.289 268.352 283.046 254.464C271.803 240.576 266.182 224.373 266.182 205.856C266.182 180.395 275.441 160.72 293.958 146.832C312.806 132.944 338.267 126 370.342 126C389.851 126 406.219 128.48 419.446 133.44C433.003 138.069 444.081 144.683 452.678 153.28C461.275 161.877 467.889 171.797 472.518 183.04L403.574 209.328C401.259 202.715 397.291 197.92 391.67 194.944C386.379 191.968 379.766 190.48 371.83 190.48C366.209 190.48 361.745 191.803 358.438 194.448C355.462 197.093 353.974 200.235 353.974 203.872C353.974 207.84 356.289 211.312 360.918 214.288C365.878 216.933 373.318 219.579 383.238 222.224L403.574 227.184C418.785 230.821 432.011 236.443 443.254 244.048C454.497 251.323 463.259 260.416 469.542 271.328C475.825 282.24 478.966 294.805 478.966 309.024C478.966 325.227 474.171 339.115 464.582 350.688C454.993 361.931 441.601 370.693 424.406 376.976C407.211 382.928 387.041 385.904 363.894 385.904Z" fill="url(#paint1_linear_9_25)"/>
<defs>
<linearGradient id="paint0_linear_9_25" x1="63.5" y1="142.5" x2="419" y2="369.5" gradientUnits="userSpaceOnUse">
<stop stop-color="#0B698E"/>
<stop offset="1" stop-color="#0B8E72"/>
</linearGradient>
<linearGradient id="paint1_linear_9_25" x1="63.5" y1="142.5" x2="419" y2="369.5" gradientUnits="userSpaceOnUse">
<stop stop-color="#0B698E"/>
<stop offset="1" stop-color="#0B8E72"/>
</linearGradient>
</defs>
</svg>
