<svg width="1051" height="157" viewBox="0 0 1051 157" fill="none" xmlns="http://www.w3.org/2000/svg">
<path d="M0 153.93V48.93H26.04L27.72 68.25V153.93H0ZM69.51 153.93V100.17H97.23V153.93H69.51ZM69.51 100.17C69.51 93.03 68.67 87.5 66.99 83.58C65.45 79.66 63.21 76.86 60.27 75.18C57.33 73.36 53.9 72.45 49.98 72.45C42.84 72.31 37.31 74.48 33.39 78.96C29.61 83.44 27.72 90.09 27.72 98.91H18.48C18.48 87.71 20.09 78.26 23.31 70.56C26.67 62.72 31.29 56.77 37.17 52.71C43.19 48.51 50.19 46.41 58.17 46.41C66.43 46.41 73.5 48.09 79.38 51.45C85.26 54.81 89.74 60.06 92.82 67.2C95.9 74.2 97.37 83.3 97.23 94.5V100.17H69.51Z" fill="url(#paint0_linear_1_18)"/>
<path d="M165.975 153.93L165.135 132.72V100.8C165.135 94.5 164.435 89.11 163.035 84.63C161.775 80.15 159.675 76.72 156.735 74.34C153.935 71.82 150.085 70.56 145.185 70.56C140.705 70.56 136.645 71.54 133.005 73.5C129.365 75.46 126.285 78.47 123.765 82.53L99.4055 74.13C101.365 69.65 104.235 65.31 108.015 61.11C111.795 56.77 116.695 53.27 122.715 50.61C128.875 47.81 136.365 46.41 145.185 46.41C155.825 46.41 164.645 48.44 171.645 52.5C178.785 56.56 184.035 62.3 187.395 69.72C190.895 77 192.575 85.68 192.435 95.76L191.805 153.93H165.975ZM136.575 156.45C123.975 156.45 114.175 153.65 107.175 148.05C100.315 142.45 96.8855 134.54 96.8855 124.32C96.8855 113.12 100.595 104.72 108.015 99.12C115.575 93.38 126.145 90.51 139.725 90.51H166.395V111.09H149.385C140.285 111.09 133.985 112.21 130.485 114.45C126.985 116.55 125.235 119.56 125.235 123.48C125.235 126.56 126.635 129.01 129.435 130.83C132.235 132.51 136.155 133.35 141.195 133.35C145.815 133.35 149.875 132.3 153.375 130.2C157.015 127.96 159.885 125.16 161.985 121.8C164.085 118.3 165.135 114.73 165.135 111.09H171.855C171.855 125.37 169.125 136.5 163.665 144.48C158.345 152.46 149.315 156.45 136.575 156.45Z" fill="url(#paint1_linear_1_18)"/>
<path d="M240.988 156.45C229.368 156.45 220.548 153.58 214.528 147.84C208.648 142.1 205.708 133.91 205.708 123.27V16.17H233.428V117.18C233.428 121.66 234.408 125.09 236.368 127.47C238.328 129.71 241.198 130.83 244.978 130.83C246.378 130.83 247.918 130.55 249.598 129.99C251.278 129.29 253.028 128.31 254.848 127.05L264.508 147.84C261.148 150.36 257.368 152.39 253.168 153.93C249.108 155.61 245.048 156.45 240.988 156.45ZM188.698 72.45V48.93H259.678V72.45H188.698Z" fill="url(#paint2_linear_1_18)"/>
<path d="M265.63 153.93V6.93H293.35V153.93H265.63ZM335.35 153.93V100.17H363.07V153.93H335.35ZM335.35 100.17C335.35 93.03 334.51 87.5 332.83 83.58C331.15 79.66 328.84 76.86 325.9 75.18C322.96 73.36 319.53 72.45 315.61 72.45C308.47 72.31 302.94 74.48 299.02 78.96C295.24 83.44 293.35 90.09 293.35 98.91H284.11C284.11 87.71 285.72 78.26 288.94 70.56C292.3 62.72 296.92 56.77 302.8 52.71C308.82 48.51 315.82 46.41 323.8 46.41C332.2 46.41 339.27 48.09 345.01 51.45C350.89 54.81 355.37 60.06 358.45 67.2C361.53 74.2 363.07 83.3 363.07 94.5V100.17H335.35Z" fill="url(#paint3_linear_1_18)"/>
<path d="M431.806 153.93L430.966 132.72V100.8C430.966 94.5 430.266 89.11 428.866 84.63C427.606 80.15 425.506 76.72 422.566 74.34C419.766 71.82 415.916 70.56 411.016 70.56C406.536 70.56 402.476 71.54 398.836 73.5C395.196 75.46 392.116 78.47 389.596 82.53L365.236 74.13C367.196 69.65 370.066 65.31 373.846 61.11C377.626 56.77 382.526 53.27 388.546 50.61C394.706 47.81 402.196 46.41 411.016 46.41C421.656 46.41 430.476 48.44 437.476 52.5C444.616 56.56 449.866 62.3 453.226 69.72C456.726 77 458.406 85.68 458.266 95.76L457.636 153.93H431.806ZM402.406 156.45C389.806 156.45 380.006 153.65 373.006 148.05C366.146 142.45 362.716 134.54 362.716 124.32C362.716 113.12 366.426 104.72 373.846 99.12C381.406 93.38 391.976 90.51 405.556 90.51H432.226V111.09H415.216C406.116 111.09 399.816 112.21 396.316 114.45C392.816 116.55 391.066 119.56 391.066 123.48C391.066 126.56 392.466 129.01 395.266 130.83C398.066 132.51 401.986 133.35 407.026 133.35C411.646 133.35 415.706 132.3 419.206 130.2C422.846 127.96 425.716 125.16 427.816 121.8C429.916 118.3 430.966 114.73 430.966 111.09H437.686C437.686 125.37 434.956 136.5 429.496 144.48C424.176 152.46 415.146 156.45 402.406 156.45Z" fill="url(#paint4_linear_1_18)"/>
<path d="M463.559 153.93V48.93H489.599L491.279 68.25V153.93H463.559ZM533.069 153.93V100.17H560.789V153.93H533.069ZM533.069 100.17C533.069 93.03 532.229 87.5 530.549 83.58C529.009 79.66 526.769 76.86 523.829 75.18C520.889 73.36 517.459 72.45 513.539 72.45C506.399 72.31 500.869 74.48 496.949 78.96C493.169 83.44 491.279 90.09 491.279 98.91H482.039C482.039 87.71 483.649 78.26 486.869 70.56C490.229 62.72 494.849 56.77 500.729 52.71C506.749 48.51 513.749 46.41 521.729 46.41C529.989 46.41 537.059 48.09 542.939 51.45C548.819 54.81 553.299 60.06 556.379 67.2C559.459 74.2 560.929 83.3 560.789 94.5V100.17H533.069Z" fill="url(#paint5_linear_1_18)"/>
<path d="M638.623 156.45C631.903 156.45 625.603 155.47 619.723 153.51C613.843 151.41 608.663 148.47 604.183 144.69C599.703 140.77 596.203 136.01 593.683 130.41L617.413 119.49C619.513 122.85 622.383 125.79 626.023 128.31C629.663 130.69 633.863 131.88 638.623 131.88C643.243 131.88 646.813 131.25 649.333 129.99C651.853 128.59 653.113 126.63 653.113 124.11C653.113 121.59 652.063 119.77 649.963 118.65C648.003 117.39 645.273 116.34 641.773 115.5L632.113 112.98C622.033 110.32 614.053 106.12 608.173 100.38C602.433 94.5 599.563 87.78 599.563 80.22C599.563 69.44 602.993 61.11 609.853 55.23C616.853 49.35 626.723 46.41 639.463 46.41C646.043 46.41 652.133 47.39 657.733 49.35C663.473 51.31 668.373 54.04 672.433 57.54C676.493 61.04 679.293 65.1 680.833 69.72L657.943 80.22C656.963 77.42 654.583 75.18 650.803 73.5C647.023 71.68 643.243 70.77 639.463 70.77C635.683 70.77 632.743 71.61 630.643 73.29C628.683 74.83 627.703 77 627.703 79.8C627.703 81.62 628.683 83.16 630.643 84.42C632.603 85.54 635.403 86.52 639.043 87.36L652.693 90.72C659.553 92.4 665.013 95.13 669.073 98.91C673.273 102.55 676.283 106.68 678.103 111.3C680.063 115.78 681.043 120.19 681.043 124.53C681.043 130.83 679.153 136.43 675.373 141.33C671.733 146.09 666.693 149.8 660.253 152.46C653.953 155.12 646.743 156.45 638.623 156.45Z" fill="url(#paint6_linear_1_18)"/>
<path d="M680.375 153.93V48.93H706.415L707.675 62.58C710.895 57.26 715.025 53.27 720.065 50.61C725.105 47.81 730.705 46.41 736.865 46.41C745.405 46.41 752.545 48.23 758.285 51.87C764.165 55.51 768.435 61.11 771.095 68.67C774.175 61.53 778.515 56.07 784.115 52.29C789.715 48.37 796.225 46.41 803.645 46.41C815.965 46.41 825.345 50.33 831.785 58.17C838.225 65.87 841.445 77.77 841.445 93.87V153.93H813.725V100.17C813.725 93.03 812.955 87.5 811.415 83.58C809.875 79.66 807.775 76.86 805.115 75.18C802.455 73.36 799.305 72.45 795.665 72.45C788.945 72.31 783.765 74.48 780.125 78.96C776.485 83.44 774.665 90.09 774.665 98.91V153.93H746.945V100.17C746.945 93.03 746.175 87.5 744.635 83.58C743.235 79.66 741.135 76.86 738.335 75.18C735.675 73.36 732.525 72.45 728.885 72.45C722.165 72.31 716.985 74.48 713.345 78.96C709.845 83.44 708.095 90.09 708.095 98.91V153.93H680.375Z" fill="url(#paint7_linear_1_18)"/>
<path d="M848.39 153.93V48.93H876.11V153.93H848.39ZM862.25 31.92C858.05 31.92 854.34 30.38 851.12 27.3C847.9 24.08 846.29 20.3 846.29 15.96C846.29 11.62 847.9 7.91 851.12 4.83C854.34 1.61 858.05 0 862.25 0C866.59 0 870.3 1.61 873.38 4.83C876.6 7.91 878.21 11.62 878.21 15.96C878.21 20.3 876.6 24.08 873.38 27.3C870.3 30.38 866.59 31.92 862.25 31.92Z" fill="url(#paint8_linear_1_18)"/>
<path d="M928.131 156.45C916.511 156.45 907.691 153.58 901.671 147.84C895.791 142.1 892.851 133.91 892.851 123.27V16.17H920.571V117.18C920.571 121.66 921.551 125.09 923.511 127.47C925.471 129.71 928.341 130.83 932.121 130.83C933.521 130.83 935.061 130.55 936.741 129.99C938.421 129.29 940.171 128.31 941.991 127.05L951.651 147.84C948.291 150.36 944.511 152.39 940.311 153.93C936.251 155.61 932.191 156.45 928.131 156.45ZM875.841 72.45V48.93H946.821V72.45H875.841Z" fill="url(#paint9_linear_1_18)"/>
<path d="M952.773 153.93V6.93H980.493V153.93H952.773ZM1022.49 153.93V100.17H1050.21V153.93H1022.49ZM1022.49 100.17C1022.49 93.03 1021.65 87.5 1019.97 83.58C1018.29 79.66 1015.98 76.86 1013.04 75.18C1010.1 73.36 1006.67 72.45 1002.75 72.45C995.613 72.31 990.083 74.48 986.163 78.96C982.383 83.44 980.493 90.09 980.493 98.91H971.253C971.253 87.71 972.863 78.26 976.083 70.56C979.443 62.72 984.063 56.77 989.943 52.71C995.963 48.51 1002.96 46.41 1010.94 46.41C1019.34 46.41 1026.41 48.09 1032.15 51.45C1038.03 54.81 1042.51 60.06 1045.59 67.2C1048.67 74.2 1050.21 83.3 1050.21 94.5V100.17H1022.49Z" fill="url(#paint10_linear_1_18)"/>
<defs>
<linearGradient id="paint0_linear_1_18" x1="-11.97" y1="80.43" x2="1065.03" y2="80.43" gradientUnits="userSpaceOnUse">
<stop stop-color="#0B698E"/>
<stop offset="1" stop-color="#0B8E72"/>
</linearGradient>
<linearGradient id="paint1_linear_1_18" x1="-11.97" y1="80.43" x2="1065.03" y2="80.43" gradientUnits="userSpaceOnUse">
<stop stop-color="#0B698E"/>
<stop offset="1" stop-color="#0B8E72"/>
</linearGradient>
<linearGradient id="paint2_linear_1_18" x1="-11.97" y1="80.43" x2="1065.03" y2="80.43" gradientUnits="userSpaceOnUse">
<stop stop-color="#0B698E"/>
<stop offset="1" stop-color="#0B8E72"/>
</linearGradient>
<linearGradient id="paint3_linear_1_18" x1="-11.97" y1="80.43" x2="1065.03" y2="80.43" gradientUnits="userSpaceOnUse">
<stop stop-color="#0B698E"/>
<stop offset="1" stop-color="#0B8E72"/>
</linearGradient>
<linearGradient id="paint4_linear_1_18" x1="-11.97" y1="80.43" x2="1065.03" y2="80.43" gradientUnits="userSpaceOnUse">
<stop stop-color="#0B698E"/>
<stop offset="1" stop-color="#0B8E72"/>
</linearGradient>
<linearGradient id="paint5_linear_1_18" x1="-11.97" y1="80.43" x2="1065.03" y2="80.43" gradientUnits="userSpaceOnUse">
<stop stop-color="#0B698E"/>
<stop offset="1" stop-color="#0B8E72"/>
</linearGradient>
<linearGradient id="paint6_linear_1_18" x1="-11.97" y1="80.43" x2="1065.03" y2="80.43" gradientUnits="userSpaceOnUse">
<stop stop-color="#0B698E"/>
<stop offset="1" stop-color="#0B8E72"/>
</linearGradient>
<linearGradient id="paint7_linear_1_18" x1="-11.97" y1="80.43" x2="1065.03" y2="80.43" gradientUnits="userSpaceOnUse">
<stop stop-color="#0B698E"/>
<stop offset="1" stop-color="#0B8E72"/>
</linearGradient>
<linearGradient id="paint8_linear_1_18" x1="-11.97" y1="80.43" x2="1065.03" y2="80.43" gradientUnits="userSpaceOnUse">
<stop stop-color="#0B698E"/>
<stop offset="1" stop-color="#0B8E72"/>
</linearGradient>
<linearGradient id="paint9_linear_1_18" x1="-11.97" y1="80.43" x2="1065.03" y2="80.43" gradientUnits="userSpaceOnUse">
<stop stop-color="#0B698E"/>
<stop offset="1" stop-color="#0B8E72"/>
</linearGradient>
<linearGradient id="paint10_linear_1_18" x1="-11.97" y1="80.43" x2="1065.03" y2="80.43" gradientUnits="userSpaceOnUse">
<stop stop-color="#0B698E"/>
<stop offset="1" stop-color="#0B8E72"/>
</linearGradient>
</defs>
</svg>
